<mxfile host="app.diagrams.net" agent="Mozilla/5.0 (Windows NT 10.0; Win64; x64; rv:133.0) Gecko/20100101 Firefox/133.0" version="27.2.0">
  <diagram name="Trang-1" id="i_WJ0XJ840tVnYzFvGeB">
    <mxGraphModel dx="3190" dy="2504" grid="0" gridSize="10" guides="1" tooltips="1" connect="1" arrows="1" fold="1" page="1" pageScale="1" pageWidth="827" pageHeight="1169" math="0" shadow="0">
      <root>
        <mxCell id="0" />
        <mxCell id="1" parent="0" />
        <mxCell id="kzhZ7mxOrEvKZff34RCB-1" value="User" style="swimlane;fontStyle=0;childLayout=stackLayout;horizontal=1;startSize=30;horizontalStack=0;resizeParent=1;resizeParentMax=0;resizeLast=0;collapsible=1;marginBottom=0;whiteSpace=wrap;html=1;" vertex="1" parent="1">
          <mxGeometry x="235" y="-43" width="210" height="330" as="geometry" />
        </mxCell>
        <mxCell id="kzhZ7mxOrEvKZff34RCB-2" value="&lt;div&gt;user_id: PK&lt;br&gt;&lt;/div&gt;" style="text;strokeColor=none;fillColor=none;align=left;verticalAlign=middle;spacingLeft=4;spacingRight=4;overflow=hidden;points=[[0,0.5],[1,0.5]];portConstraint=eastwest;rotatable=0;whiteSpace=wrap;html=1;" vertex="1" parent="kzhZ7mxOrEvKZff34RCB-1">
          <mxGeometry y="30" width="210" height="30" as="geometry" />
        </mxCell>
        <mxCell id="kzhZ7mxOrEvKZff34RCB-3" value="userName" style="text;strokeColor=none;fillColor=none;align=left;verticalAlign=middle;spacingLeft=4;spacingRight=4;overflow=hidden;points=[[0,0.5],[1,0.5]];portConstraint=eastwest;rotatable=0;whiteSpace=wrap;html=1;" vertex="1" parent="kzhZ7mxOrEvKZff34RCB-1">
          <mxGeometry y="60" width="210" height="30" as="geometry" />
        </mxCell>
        <mxCell id="kzhZ7mxOrEvKZff34RCB-4" value="email : String" style="text;strokeColor=none;fillColor=none;align=left;verticalAlign=middle;spacingLeft=4;spacingRight=4;overflow=hidden;points=[[0,0.5],[1,0.5]];portConstraint=eastwest;rotatable=0;whiteSpace=wrap;html=1;" vertex="1" parent="kzhZ7mxOrEvKZff34RCB-1">
          <mxGeometry y="90" width="210" height="30" as="geometry" />
        </mxCell>
        <mxCell id="kzhZ7mxOrEvKZff34RCB-6" value="password_hash" style="text;strokeColor=none;fillColor=none;align=left;verticalAlign=middle;spacingLeft=4;spacingRight=4;overflow=hidden;points=[[0,0.5],[1,0.5]];portConstraint=eastwest;rotatable=0;whiteSpace=wrap;html=1;" vertex="1" parent="kzhZ7mxOrEvKZff34RCB-1">
          <mxGeometry y="120" width="210" height="30" as="geometry" />
        </mxCell>
        <mxCell id="kzhZ7mxOrEvKZff34RCB-7" value="phone" style="text;strokeColor=none;fillColor=none;align=left;verticalAlign=middle;spacingLeft=4;spacingRight=4;overflow=hidden;points=[[0,0.5],[1,0.5]];portConstraint=eastwest;rotatable=0;whiteSpace=wrap;html=1;" vertex="1" parent="kzhZ7mxOrEvKZff34RCB-1">
          <mxGeometry y="150" width="210" height="30" as="geometry" />
        </mxCell>
        <mxCell id="kzhZ7mxOrEvKZff34RCB-8" value="gender" style="text;strokeColor=none;fillColor=none;align=left;verticalAlign=middle;spacingLeft=4;spacingRight=4;overflow=hidden;points=[[0,0.5],[1,0.5]];portConstraint=eastwest;rotatable=0;whiteSpace=wrap;html=1;" vertex="1" parent="kzhZ7mxOrEvKZff34RCB-1">
          <mxGeometry y="180" width="210" height="30" as="geometry" />
        </mxCell>
        <mxCell id="kzhZ7mxOrEvKZff34RCB-9" value="&lt;code data-end=&quot;452&quot; data-start=&quot;447&quot;&gt;dob&lt;/code&gt; (date of birth)" style="text;strokeColor=none;fillColor=none;align=left;verticalAlign=middle;spacingLeft=4;spacingRight=4;overflow=hidden;points=[[0,0.5],[1,0.5]];portConstraint=eastwest;rotatable=0;whiteSpace=wrap;html=1;" vertex="1" parent="kzhZ7mxOrEvKZff34RCB-1">
          <mxGeometry y="210" width="210" height="30" as="geometry" />
        </mxCell>
        <mxCell id="kzhZ7mxOrEvKZff34RCB-10" value="&lt;code data-end=&quot;477&quot; data-start=&quot;471&quot;&gt;role&lt;/code&gt; (enum: &#39;patient&#39;, &#39;doctor&#39;, &#39;admin&#39;)" style="text;strokeColor=none;fillColor=none;align=left;verticalAlign=middle;spacingLeft=4;spacingRight=4;overflow=hidden;points=[[0,0.5],[1,0.5]];portConstraint=eastwest;rotatable=0;whiteSpace=wrap;html=1;" vertex="1" parent="kzhZ7mxOrEvKZff34RCB-1">
          <mxGeometry y="240" width="210" height="30" as="geometry" />
        </mxCell>
        <mxCell id="kzhZ7mxOrEvKZff34RCB-12" value="avatar_url" style="text;strokeColor=none;fillColor=none;align=left;verticalAlign=middle;spacingLeft=4;spacingRight=4;overflow=hidden;points=[[0,0.5],[1,0.5]];portConstraint=eastwest;rotatable=0;whiteSpace=wrap;html=1;" vertex="1" parent="kzhZ7mxOrEvKZff34RCB-1">
          <mxGeometry y="270" width="210" height="30" as="geometry" />
        </mxCell>
        <mxCell id="kzhZ7mxOrEvKZff34RCB-13" value="created_at" style="text;strokeColor=none;fillColor=none;align=left;verticalAlign=middle;spacingLeft=4;spacingRight=4;overflow=hidden;points=[[0,0.5],[1,0.5]];portConstraint=eastwest;rotatable=0;whiteSpace=wrap;html=1;" vertex="1" parent="kzhZ7mxOrEvKZff34RCB-1">
          <mxGeometry y="300" width="210" height="30" as="geometry" />
        </mxCell>
        <mxCell id="kzhZ7mxOrEvKZff34RCB-153" style="rounded=0;orthogonalLoop=1;jettySize=auto;html=1;entryX=1;entryY=0.5;entryDx=0;entryDy=0;startArrow=ERmany;startFill=0;exitX=0.013;exitY=-0.336;exitDx=0;exitDy=0;exitPerimeter=0;" edge="1" parent="1" source="kzhZ7mxOrEvKZff34RCB-17" target="kzhZ7mxOrEvKZff34RCB-7">
          <mxGeometry relative="1" as="geometry" />
        </mxCell>
        <mxCell id="kzhZ7mxOrEvKZff34RCB-14" value="Patient" style="swimlane;fontStyle=0;childLayout=stackLayout;horizontal=1;startSize=30;horizontalStack=0;resizeParent=1;resizeParentMax=0;resizeLast=0;collapsible=1;marginBottom=0;whiteSpace=wrap;html=1;swimlaneLine=1;rounded=0;shadow=0;glass=0;" vertex="1" parent="1">
          <mxGeometry x="618" y="415" width="140" height="150" as="geometry" />
        </mxCell>
        <mxCell id="kzhZ7mxOrEvKZff34RCB-15" value="&lt;code data-end=&quot;597&quot; data-start=&quot;585&quot;&gt;patient_id&lt;/code&gt; (PK, FK → User.user_id)" style="text;strokeColor=none;fillColor=none;align=left;verticalAlign=middle;spacingLeft=4;spacingRight=4;overflow=hidden;points=[[0,0.5],[1,0.5]];portConstraint=eastwest;rotatable=0;whiteSpace=wrap;html=1;" vertex="1" parent="kzhZ7mxOrEvKZff34RCB-14">
          <mxGeometry y="30" width="140" height="30" as="geometry" />
        </mxCell>
        <mxCell id="kzhZ7mxOrEvKZff34RCB-16" value="blood_type" style="text;strokeColor=none;fillColor=none;align=left;verticalAlign=middle;spacingLeft=4;spacingRight=4;overflow=hidden;points=[[0,0.5],[1,0.5]];portConstraint=eastwest;rotatable=0;whiteSpace=wrap;html=1;" vertex="1" parent="kzhZ7mxOrEvKZff34RCB-14">
          <mxGeometry y="60" width="140" height="30" as="geometry" />
        </mxCell>
        <mxCell id="kzhZ7mxOrEvKZff34RCB-17" value="insurance_number" style="text;strokeColor=none;fillColor=none;align=left;verticalAlign=middle;spacingLeft=4;spacingRight=4;overflow=hidden;points=[[0,0.5],[1,0.5]];portConstraint=eastwest;rotatable=0;whiteSpace=wrap;html=1;" vertex="1" parent="kzhZ7mxOrEvKZff34RCB-14">
          <mxGeometry y="90" width="140" height="30" as="geometry" />
        </mxCell>
        <mxCell id="kzhZ7mxOrEvKZff34RCB-18" value="address" style="text;strokeColor=none;fillColor=none;align=left;verticalAlign=middle;spacingLeft=4;spacingRight=4;overflow=hidden;points=[[0,0.5],[1,0.5]];portConstraint=eastwest;rotatable=0;whiteSpace=wrap;html=1;" vertex="1" parent="kzhZ7mxOrEvKZff34RCB-14">
          <mxGeometry y="120" width="140" height="30" as="geometry" />
        </mxCell>
        <mxCell id="kzhZ7mxOrEvKZff34RCB-25" value="Doctor" style="swimlane;fontStyle=0;childLayout=stackLayout;horizontal=1;startSize=30;horizontalStack=0;resizeParent=1;resizeParentMax=0;resizeLast=0;collapsible=1;marginBottom=0;whiteSpace=wrap;html=1;" vertex="1" parent="1">
          <mxGeometry x="180" y="431" width="210" height="240" as="geometry" />
        </mxCell>
        <mxCell id="kzhZ7mxOrEvKZff34RCB-26" value=" doctor_id (PK, FK -&amp;gt; user_id)" style="text;strokeColor=none;fillColor=none;align=left;verticalAlign=middle;spacingLeft=4;spacingRight=4;overflow=hidden;points=[[0,0.5],[1,0.5]];portConstraint=eastwest;rotatable=0;whiteSpace=wrap;html=1;" vertex="1" parent="kzhZ7mxOrEvKZff34RCB-25">
          <mxGeometry y="30" width="210" height="30" as="geometry" />
        </mxCell>
        <mxCell id="kzhZ7mxOrEvKZff34RCB-27" value="specialization_id (FK → Specialization.specialization_id)" style="text;strokeColor=none;fillColor=none;align=left;verticalAlign=middle;spacingLeft=4;spacingRight=4;overflow=hidden;points=[[0,0.5],[1,0.5]];portConstraint=eastwest;rotatable=0;whiteSpace=wrap;html=1;" vertex="1" parent="kzhZ7mxOrEvKZff34RCB-25">
          <mxGeometry y="60" width="210" height="30" as="geometry" />
        </mxCell>
        <mxCell id="kzhZ7mxOrEvKZff34RCB-28" value="license_number" style="text;strokeColor=none;fillColor=none;align=left;verticalAlign=middle;spacingLeft=4;spacingRight=4;overflow=hidden;points=[[0,0.5],[1,0.5]];portConstraint=eastwest;rotatable=0;whiteSpace=wrap;html=1;" vertex="1" parent="kzhZ7mxOrEvKZff34RCB-25">
          <mxGeometry y="90" width="210" height="30" as="geometry" />
        </mxCell>
        <mxCell id="kzhZ7mxOrEvKZff34RCB-29" value="experience_years" style="text;strokeColor=none;fillColor=none;align=left;verticalAlign=middle;spacingLeft=4;spacingRight=4;overflow=hidden;points=[[0,0.5],[1,0.5]];portConstraint=eastwest;rotatable=0;whiteSpace=wrap;html=1;" vertex="1" parent="kzhZ7mxOrEvKZff34RCB-25">
          <mxGeometry y="120" width="210" height="30" as="geometry" />
        </mxCell>
        <mxCell id="kzhZ7mxOrEvKZff34RCB-30" value="bio" style="text;strokeColor=none;fillColor=none;align=left;verticalAlign=middle;spacingLeft=4;spacingRight=4;overflow=hidden;points=[[0,0.5],[1,0.5]];portConstraint=eastwest;rotatable=0;whiteSpace=wrap;html=1;" vertex="1" parent="kzhZ7mxOrEvKZff34RCB-25">
          <mxGeometry y="150" width="210" height="30" as="geometry" />
        </mxCell>
        <mxCell id="kzhZ7mxOrEvKZff34RCB-31" value="rating (float)" style="text;strokeColor=none;fillColor=none;align=left;verticalAlign=middle;spacingLeft=4;spacingRight=4;overflow=hidden;points=[[0,0.5],[1,0.5]];portConstraint=eastwest;rotatable=0;whiteSpace=wrap;html=1;" vertex="1" parent="kzhZ7mxOrEvKZff34RCB-25">
          <mxGeometry y="180" width="210" height="30" as="geometry" />
        </mxCell>
        <mxCell id="kzhZ7mxOrEvKZff34RCB-171" value="DoctorSchedule" style="text;strokeColor=none;fillColor=none;align=left;verticalAlign=middle;spacingLeft=4;spacingRight=4;overflow=hidden;points=[[0,0.5],[1,0.5]];portConstraint=eastwest;rotatable=0;whiteSpace=wrap;html=1;" vertex="1" parent="kzhZ7mxOrEvKZff34RCB-25">
          <mxGeometry y="210" width="210" height="30" as="geometry" />
        </mxCell>
        <mxCell id="kzhZ7mxOrEvKZff34RCB-36" value="Specialization" style="swimlane;fontStyle=0;childLayout=stackLayout;horizontal=1;startSize=30;horizontalStack=0;resizeParent=1;resizeParentMax=0;resizeLast=0;collapsible=1;marginBottom=0;whiteSpace=wrap;html=1;swimlaneLine=1;rounded=0;shadow=0;glass=0;" vertex="1" parent="1">
          <mxGeometry x="-44" y="293" width="140" height="120" as="geometry" />
        </mxCell>
        <mxCell id="kzhZ7mxOrEvKZff34RCB-37" value="specialization_id (PK)" style="text;strokeColor=none;fillColor=none;align=left;verticalAlign=middle;spacingLeft=4;spacingRight=4;overflow=hidden;points=[[0,0.5],[1,0.5]];portConstraint=eastwest;rotatable=0;whiteSpace=wrap;html=1;" vertex="1" parent="kzhZ7mxOrEvKZff34RCB-36">
          <mxGeometry y="30" width="140" height="30" as="geometry" />
        </mxCell>
        <mxCell id="kzhZ7mxOrEvKZff34RCB-38" value="name" style="text;strokeColor=none;fillColor=none;align=left;verticalAlign=middle;spacingLeft=4;spacingRight=4;overflow=hidden;points=[[0,0.5],[1,0.5]];portConstraint=eastwest;rotatable=0;whiteSpace=wrap;html=1;" vertex="1" parent="kzhZ7mxOrEvKZff34RCB-36">
          <mxGeometry y="60" width="140" height="30" as="geometry" />
        </mxCell>
        <mxCell id="kzhZ7mxOrEvKZff34RCB-39" value="description" style="text;strokeColor=none;fillColor=none;align=left;verticalAlign=middle;spacingLeft=4;spacingRight=4;overflow=hidden;points=[[0,0.5],[1,0.5]];portConstraint=eastwest;rotatable=0;whiteSpace=wrap;html=1;" vertex="1" parent="kzhZ7mxOrEvKZff34RCB-36">
          <mxGeometry y="90" width="140" height="30" as="geometry" />
        </mxCell>
        <mxCell id="kzhZ7mxOrEvKZff34RCB-41" value="Appointment" style="swimlane;fontStyle=0;childLayout=stackLayout;horizontal=1;startSize=30;horizontalStack=0;resizeParent=1;resizeParentMax=0;resizeLast=0;collapsible=1;marginBottom=0;whiteSpace=wrap;html=1;" vertex="1" parent="1">
          <mxGeometry x="984" y="596" width="210" height="330" as="geometry" />
        </mxCell>
        <mxCell id="kzhZ7mxOrEvKZff34RCB-42" value=" appointment_id (PK)" style="text;strokeColor=none;fillColor=none;align=left;verticalAlign=middle;spacingLeft=4;spacingRight=4;overflow=hidden;points=[[0,0.5],[1,0.5]];portConstraint=eastwest;rotatable=0;whiteSpace=wrap;html=1;" vertex="1" parent="kzhZ7mxOrEvKZff34RCB-41">
          <mxGeometry y="30" width="210" height="30" as="geometry" />
        </mxCell>
        <mxCell id="kzhZ7mxOrEvKZff34RCB-43" value="patient_id (FK → Patient.patient_id)" style="text;strokeColor=none;fillColor=none;align=left;verticalAlign=middle;spacingLeft=4;spacingRight=4;overflow=hidden;points=[[0,0.5],[1,0.5]];portConstraint=eastwest;rotatable=0;whiteSpace=wrap;html=1;" vertex="1" parent="kzhZ7mxOrEvKZff34RCB-41">
          <mxGeometry y="60" width="210" height="30" as="geometry" />
        </mxCell>
        <mxCell id="kzhZ7mxOrEvKZff34RCB-44" value="doctor_id (FK → Doctor.doctor_id)" style="text;strokeColor=none;fillColor=none;align=left;verticalAlign=middle;spacingLeft=4;spacingRight=4;overflow=hidden;points=[[0,0.5],[1,0.5]];portConstraint=eastwest;rotatable=0;whiteSpace=wrap;html=1;" vertex="1" parent="kzhZ7mxOrEvKZff34RCB-41">
          <mxGeometry y="90" width="210" height="30" as="geometry" />
        </mxCell>
        <mxCell id="kzhZ7mxOrEvKZff34RCB-45" value="scheduled_time" style="text;strokeColor=none;fillColor=none;align=left;verticalAlign=middle;spacingLeft=4;spacingRight=4;overflow=hidden;points=[[0,0.5],[1,0.5]];portConstraint=eastwest;rotatable=0;whiteSpace=wrap;html=1;" vertex="1" parent="kzhZ7mxOrEvKZff34RCB-41">
          <mxGeometry y="120" width="210" height="30" as="geometry" />
        </mxCell>
        <mxCell id="kzhZ7mxOrEvKZff34RCB-46" value="status (enum: &#39;pending&#39;, &#39;confirmed&#39;, &#39;completed&#39;, &#39;cancelled&#39;)" style="text;strokeColor=none;fillColor=none;align=left;verticalAlign=middle;spacingLeft=4;spacingRight=4;overflow=hidden;points=[[0,0.5],[1,0.5]];portConstraint=eastwest;rotatable=0;whiteSpace=wrap;html=1;" vertex="1" parent="kzhZ7mxOrEvKZff34RCB-41">
          <mxGeometry y="150" width="210" height="30" as="geometry" />
        </mxCell>
        <mxCell id="kzhZ7mxOrEvKZff34RCB-47" value=" symptoms (text)" style="text;strokeColor=none;fillColor=none;align=left;verticalAlign=middle;spacingLeft=4;spacingRight=4;overflow=hidden;points=[[0,0.5],[1,0.5]];portConstraint=eastwest;rotatable=0;whiteSpace=wrap;html=1;" vertex="1" parent="kzhZ7mxOrEvKZff34RCB-41">
          <mxGeometry y="180" width="210" height="30" as="geometry" />
        </mxCell>
        <mxCell id="kzhZ7mxOrEvKZff34RCB-48" value="diagnosis_ai (text)" style="text;strokeColor=none;fillColor=none;align=left;verticalAlign=middle;spacingLeft=4;spacingRight=4;overflow=hidden;points=[[0,0.5],[1,0.5]];portConstraint=eastwest;rotatable=0;whiteSpace=wrap;html=1;" vertex="1" parent="kzhZ7mxOrEvKZff34RCB-41">
          <mxGeometry y="210" width="210" height="30" as="geometry" />
        </mxCell>
        <mxCell id="kzhZ7mxOrEvKZff34RCB-49" value="appointment_type: enum(&#39;in_person&#39;, &#39;video_call&#39;)" style="text;strokeColor=none;fillColor=none;align=left;verticalAlign=middle;spacingLeft=4;spacingRight=4;overflow=hidden;points=[[0,0.5],[1,0.5]];portConstraint=eastwest;rotatable=0;whiteSpace=wrap;html=1;" vertex="1" parent="kzhZ7mxOrEvKZff34RCB-41">
          <mxGeometry y="240" width="210" height="30" as="geometry" />
        </mxCell>
        <mxCell id="kzhZ7mxOrEvKZff34RCB-154" value=" created_at" style="text;strokeColor=none;fillColor=none;align=left;verticalAlign=middle;spacingLeft=4;spacingRight=4;overflow=hidden;points=[[0,0.5],[1,0.5]];portConstraint=eastwest;rotatable=0;whiteSpace=wrap;html=1;" vertex="1" parent="kzhZ7mxOrEvKZff34RCB-41">
          <mxGeometry y="270" width="210" height="30" as="geometry" />
        </mxCell>
        <mxCell id="kzhZ7mxOrEvKZff34RCB-172" value="&lt;code data-end=&quot;1305&quot; data-start=&quot;1287&quot;&gt;note_from_doctor&lt;/code&gt;" style="text;strokeColor=none;fillColor=none;align=left;verticalAlign=middle;spacingLeft=4;spacingRight=4;overflow=hidden;points=[[0,0.5],[1,0.5]];portConstraint=eastwest;rotatable=0;whiteSpace=wrap;html=1;" vertex="1" parent="kzhZ7mxOrEvKZff34RCB-41">
          <mxGeometry y="300" width="210" height="30" as="geometry" />
        </mxCell>
        <mxCell id="kzhZ7mxOrEvKZff34RCB-52" value="MedicalRecord" style="swimlane;fontStyle=0;childLayout=stackLayout;horizontal=1;startSize=30;horizontalStack=0;resizeParent=1;resizeParentMax=0;resizeLast=0;collapsible=1;marginBottom=0;whiteSpace=wrap;html=1;" vertex="1" parent="1">
          <mxGeometry x="887" y="70" width="210" height="210" as="geometry" />
        </mxCell>
        <mxCell id="kzhZ7mxOrEvKZff34RCB-53" value="record_id (PK)" style="text;strokeColor=none;fillColor=none;align=left;verticalAlign=middle;spacingLeft=4;spacingRight=4;overflow=hidden;points=[[0,0.5],[1,0.5]];portConstraint=eastwest;rotatable=0;whiteSpace=wrap;html=1;" vertex="1" parent="kzhZ7mxOrEvKZff34RCB-52">
          <mxGeometry y="30" width="210" height="30" as="geometry" />
        </mxCell>
        <mxCell id="kzhZ7mxOrEvKZff34RCB-54" value="appointment_id (FK → Appointment.appointment_id)" style="text;strokeColor=none;fillColor=none;align=left;verticalAlign=middle;spacingLeft=4;spacingRight=4;overflow=hidden;points=[[0,0.5],[1,0.5]];portConstraint=eastwest;rotatable=0;whiteSpace=wrap;html=1;" vertex="1" parent="kzhZ7mxOrEvKZff34RCB-52">
          <mxGeometry y="60" width="210" height="30" as="geometry" />
        </mxCell>
        <mxCell id="kzhZ7mxOrEvKZff34RCB-55" value="diagnosis" style="text;strokeColor=none;fillColor=none;align=left;verticalAlign=middle;spacingLeft=4;spacingRight=4;overflow=hidden;points=[[0,0.5],[1,0.5]];portConstraint=eastwest;rotatable=0;whiteSpace=wrap;html=1;" vertex="1" parent="kzhZ7mxOrEvKZff34RCB-52">
          <mxGeometry y="90" width="210" height="30" as="geometry" />
        </mxCell>
        <mxCell id="kzhZ7mxOrEvKZff34RCB-56" value=" notes&lt;div&gt;&lt;br/&gt;&lt;/div&gt;" style="text;strokeColor=none;fillColor=none;align=left;verticalAlign=middle;spacingLeft=4;spacingRight=4;overflow=hidden;points=[[0,0.5],[1,0.5]];portConstraint=eastwest;rotatable=0;whiteSpace=wrap;html=1;" vertex="1" parent="kzhZ7mxOrEvKZff34RCB-52">
          <mxGeometry y="120" width="210" height="30" as="geometry" />
        </mxCell>
        <mxCell id="kzhZ7mxOrEvKZff34RCB-57" value=" file_url" style="text;strokeColor=none;fillColor=none;align=left;verticalAlign=middle;spacingLeft=4;spacingRight=4;overflow=hidden;points=[[0,0.5],[1,0.5]];portConstraint=eastwest;rotatable=0;whiteSpace=wrap;html=1;" vertex="1" parent="kzhZ7mxOrEvKZff34RCB-52">
          <mxGeometry y="150" width="210" height="30" as="geometry" />
        </mxCell>
        <mxCell id="kzhZ7mxOrEvKZff34RCB-58" value="created_at" style="text;strokeColor=none;fillColor=none;align=left;verticalAlign=middle;spacingLeft=4;spacingRight=4;overflow=hidden;points=[[0,0.5],[1,0.5]];portConstraint=eastwest;rotatable=0;whiteSpace=wrap;html=1;" vertex="1" parent="kzhZ7mxOrEvKZff34RCB-52">
          <mxGeometry y="180" width="210" height="30" as="geometry" />
        </mxCell>
        <mxCell id="kzhZ7mxOrEvKZff34RCB-61" value="Prescription" style="swimlane;fontStyle=0;childLayout=stackLayout;horizontal=1;startSize=30;horizontalStack=0;resizeParent=1;resizeParentMax=0;resizeLast=0;collapsible=1;marginBottom=0;whiteSpace=wrap;html=1;" vertex="1" parent="1">
          <mxGeometry x="581" y="918" width="210" height="450" as="geometry" />
        </mxCell>
        <mxCell id="kzhZ7mxOrEvKZff34RCB-62" value="Prescription" style="text;strokeColor=none;fillColor=none;align=left;verticalAlign=middle;spacingLeft=4;spacingRight=4;overflow=hidden;points=[[0,0.5],[1,0.5]];portConstraint=eastwest;rotatable=0;whiteSpace=wrap;html=1;" vertex="1" parent="kzhZ7mxOrEvKZff34RCB-61">
          <mxGeometry y="30" width="210" height="30" as="geometry" />
        </mxCell>
        <mxCell id="kzhZ7mxOrEvKZff34RCB-63" value="prescription_id (PK)" style="text;strokeColor=none;fillColor=none;align=left;verticalAlign=middle;spacingLeft=4;spacingRight=4;overflow=hidden;points=[[0,0.5],[1,0.5]];portConstraint=eastwest;rotatable=0;whiteSpace=wrap;html=1;" vertex="1" parent="kzhZ7mxOrEvKZff34RCB-61">
          <mxGeometry y="60" width="210" height="30" as="geometry" />
        </mxCell>
        <mxCell id="kzhZ7mxOrEvKZff34RCB-64" value="record_id (FK → MedicalRecord.record_id)" style="text;strokeColor=none;fillColor=none;align=left;verticalAlign=middle;spacingLeft=4;spacingRight=4;overflow=hidden;points=[[0,0.5],[1,0.5]];portConstraint=eastwest;rotatable=0;whiteSpace=wrap;html=1;" vertex="1" parent="kzhZ7mxOrEvKZff34RCB-61">
          <mxGeometry y="90" width="210" height="30" as="geometry" />
        </mxCell>
        <mxCell id="kzhZ7mxOrEvKZff34RCB-65" value=" medicine_name" style="text;strokeColor=none;fillColor=none;align=left;verticalAlign=middle;spacingLeft=4;spacingRight=4;overflow=hidden;points=[[0,0.5],[1,0.5]];portConstraint=eastwest;rotatable=0;whiteSpace=wrap;html=1;" vertex="1" parent="kzhZ7mxOrEvKZff34RCB-61">
          <mxGeometry y="120" width="210" height="30" as="geometry" />
        </mxCell>
        <mxCell id="kzhZ7mxOrEvKZff34RCB-66" value="dosage" style="text;strokeColor=none;fillColor=none;align=left;verticalAlign=middle;spacingLeft=4;spacingRight=4;overflow=hidden;points=[[0,0.5],[1,0.5]];portConstraint=eastwest;rotatable=0;whiteSpace=wrap;html=1;" vertex="1" parent="kzhZ7mxOrEvKZff34RCB-61">
          <mxGeometry y="150" width="210" height="30" as="geometry" />
        </mxCell>
        <mxCell id="kzhZ7mxOrEvKZff34RCB-67" value=" duration" style="text;strokeColor=none;fillColor=none;align=left;verticalAlign=middle;spacingLeft=4;spacingRight=4;overflow=hidden;points=[[0,0.5],[1,0.5]];portConstraint=eastwest;rotatable=0;whiteSpace=wrap;html=1;" vertex="1" parent="kzhZ7mxOrEvKZff34RCB-61">
          <mxGeometry y="180" width="210" height="30" as="geometry" />
        </mxCell>
        <mxCell id="kzhZ7mxOrEvKZff34RCB-119" value="appointment_type: enum(&#39;in_person&#39;, &#39;video_call&#39;)" style="text;strokeColor=none;fillColor=none;align=left;verticalAlign=middle;spacingLeft=4;spacingRight=4;overflow=hidden;points=[[0,0.5],[1,0.5]];portConstraint=eastwest;rotatable=0;whiteSpace=wrap;html=1;" vertex="1" parent="kzhZ7mxOrEvKZff34RCB-61">
          <mxGeometry y="210" width="210" height="30" as="geometry" />
        </mxCell>
        <mxCell id="kzhZ7mxOrEvKZff34RCB-175" value="&lt;code data-end=&quot;1765&quot; data-start=&quot;1750&quot;&gt;prescribed_by&lt;/code&gt; (FK → Doctor)" style="text;strokeColor=none;fillColor=none;align=left;verticalAlign=middle;spacingLeft=4;spacingRight=4;overflow=hidden;points=[[0,0.5],[1,0.5]];portConstraint=eastwest;rotatable=0;whiteSpace=wrap;html=1;" vertex="1" parent="kzhZ7mxOrEvKZff34RCB-61">
          <mxGeometry y="240" width="210" height="30" as="geometry" />
        </mxCell>
        <mxCell id="kzhZ7mxOrEvKZff34RCB-176" value="&lt;code data-end=&quot;1797&quot; data-start=&quot;1782&quot;&gt;prescribed_to&lt;/code&gt; (FK → Patient)" style="text;strokeColor=none;fillColor=none;align=left;verticalAlign=middle;spacingLeft=4;spacingRight=4;overflow=hidden;points=[[0,0.5],[1,0.5]];portConstraint=eastwest;rotatable=0;whiteSpace=wrap;html=1;" vertex="1" parent="kzhZ7mxOrEvKZff34RCB-61">
          <mxGeometry y="270" width="210" height="30" as="geometry" />
        </mxCell>
        <mxCell id="kzhZ7mxOrEvKZff34RCB-181" value="frequency" style="text;strokeColor=none;fillColor=none;align=left;verticalAlign=middle;spacingLeft=4;spacingRight=4;overflow=hidden;points=[[0,0.5],[1,0.5]];portConstraint=eastwest;rotatable=0;whiteSpace=wrap;html=1;" vertex="1" parent="kzhZ7mxOrEvKZff34RCB-61">
          <mxGeometry y="300" width="210" height="30" as="geometry" />
        </mxCell>
        <mxCell id="kzhZ7mxOrEvKZff34RCB-182" value="note" style="text;strokeColor=none;fillColor=none;align=left;verticalAlign=middle;spacingLeft=4;spacingRight=4;overflow=hidden;points=[[0,0.5],[1,0.5]];portConstraint=eastwest;rotatable=0;whiteSpace=wrap;html=1;" vertex="1" parent="kzhZ7mxOrEvKZff34RCB-61">
          <mxGeometry y="330" width="210" height="30" as="geometry" />
        </mxCell>
        <mxCell id="kzhZ7mxOrEvKZff34RCB-183" value="created_at" style="text;strokeColor=none;fillColor=none;align=left;verticalAlign=middle;spacingLeft=4;spacingRight=4;overflow=hidden;points=[[0,0.5],[1,0.5]];portConstraint=eastwest;rotatable=0;whiteSpace=wrap;html=1;" vertex="1" parent="kzhZ7mxOrEvKZff34RCB-61">
          <mxGeometry y="360" width="210" height="30" as="geometry" />
        </mxCell>
        <mxCell id="kzhZ7mxOrEvKZff34RCB-204" value="prescribed_by (FK → Doctor)" style="text;strokeColor=none;fillColor=none;align=left;verticalAlign=middle;spacingLeft=4;spacingRight=4;overflow=hidden;points=[[0,0.5],[1,0.5]];portConstraint=eastwest;rotatable=0;whiteSpace=wrap;html=1;" vertex="1" parent="kzhZ7mxOrEvKZff34RCB-61">
          <mxGeometry y="390" width="210" height="30" as="geometry" />
        </mxCell>
        <mxCell id="kzhZ7mxOrEvKZff34RCB-205" value="prescribed_to (FK → Patient)" style="text;strokeColor=none;fillColor=none;align=left;verticalAlign=middle;spacingLeft=4;spacingRight=4;overflow=hidden;points=[[0,0.5],[1,0.5]];portConstraint=eastwest;rotatable=0;whiteSpace=wrap;html=1;" vertex="1" parent="kzhZ7mxOrEvKZff34RCB-61">
          <mxGeometry y="420" width="210" height="30" as="geometry" />
        </mxCell>
        <mxCell id="kzhZ7mxOrEvKZff34RCB-70" value="ChatMessage" style="swimlane;fontStyle=0;childLayout=stackLayout;horizontal=1;startSize=30;horizontalStack=0;resizeParent=1;resizeParentMax=0;resizeLast=0;collapsible=1;marginBottom=0;whiteSpace=wrap;html=1;" vertex="1" parent="1">
          <mxGeometry x="156" y="864" width="210" height="210" as="geometry" />
        </mxCell>
        <mxCell id="kzhZ7mxOrEvKZff34RCB-71" value=" message_id (PK)" style="text;strokeColor=none;fillColor=none;align=left;verticalAlign=middle;spacingLeft=4;spacingRight=4;overflow=hidden;points=[[0,0.5],[1,0.5]];portConstraint=eastwest;rotatable=0;whiteSpace=wrap;html=1;" vertex="1" parent="kzhZ7mxOrEvKZff34RCB-70">
          <mxGeometry y="30" width="210" height="30" as="geometry" />
        </mxCell>
        <mxCell id="kzhZ7mxOrEvKZff34RCB-72" value="appointment_id (FK → Appointment)" style="text;strokeColor=none;fillColor=none;align=left;verticalAlign=middle;spacingLeft=4;spacingRight=4;overflow=hidden;points=[[0,0.5],[1,0.5]];portConstraint=eastwest;rotatable=0;whiteSpace=wrap;html=1;" vertex="1" parent="kzhZ7mxOrEvKZff34RCB-70">
          <mxGeometry y="60" width="210" height="30" as="geometry" />
        </mxCell>
        <mxCell id="kzhZ7mxOrEvKZff34RCB-73" value="sender_id (FK → User)" style="text;strokeColor=none;fillColor=none;align=left;verticalAlign=middle;spacingLeft=4;spacingRight=4;overflow=hidden;points=[[0,0.5],[1,0.5]];portConstraint=eastwest;rotatable=0;whiteSpace=wrap;html=1;" vertex="1" parent="kzhZ7mxOrEvKZff34RCB-70">
          <mxGeometry y="90" width="210" height="30" as="geometry" />
        </mxCell>
        <mxCell id="kzhZ7mxOrEvKZff34RCB-74" value="message" style="text;strokeColor=none;fillColor=none;align=left;verticalAlign=middle;spacingLeft=4;spacingRight=4;overflow=hidden;points=[[0,0.5],[1,0.5]];portConstraint=eastwest;rotatable=0;whiteSpace=wrap;html=1;" vertex="1" parent="kzhZ7mxOrEvKZff34RCB-70">
          <mxGeometry y="120" width="210" height="30" as="geometry" />
        </mxCell>
        <mxCell id="kzhZ7mxOrEvKZff34RCB-75" value=" sent_at" style="text;strokeColor=none;fillColor=none;align=left;verticalAlign=middle;spacingLeft=4;spacingRight=4;overflow=hidden;points=[[0,0.5],[1,0.5]];portConstraint=eastwest;rotatable=0;whiteSpace=wrap;html=1;" vertex="1" parent="kzhZ7mxOrEvKZff34RCB-70">
          <mxGeometry y="150" width="210" height="30" as="geometry" />
        </mxCell>
        <mxCell id="kzhZ7mxOrEvKZff34RCB-177" value="receiver_id (FK → User)" style="text;strokeColor=none;fillColor=none;align=left;verticalAlign=middle;spacingLeft=4;spacingRight=4;overflow=hidden;points=[[0,0.5],[1,0.5]];portConstraint=eastwest;rotatable=0;whiteSpace=wrap;html=1;" vertex="1" parent="kzhZ7mxOrEvKZff34RCB-70">
          <mxGeometry y="180" width="210" height="30" as="geometry" />
        </mxCell>
        <mxCell id="kzhZ7mxOrEvKZff34RCB-77" value="VideoCallSession" style="swimlane;fontStyle=0;childLayout=stackLayout;horizontal=1;startSize=30;horizontalStack=0;resizeParent=1;resizeParentMax=0;resizeLast=0;collapsible=1;marginBottom=0;whiteSpace=wrap;html=1;" vertex="1" parent="1">
          <mxGeometry x="978" y="1040" width="210" height="180" as="geometry" />
        </mxCell>
        <mxCell id="kzhZ7mxOrEvKZff34RCB-78" value="session_id (PK)" style="text;strokeColor=none;fillColor=none;align=left;verticalAlign=middle;spacingLeft=4;spacingRight=4;overflow=hidden;points=[[0,0.5],[1,0.5]];portConstraint=eastwest;rotatable=0;whiteSpace=wrap;html=1;" vertex="1" parent="kzhZ7mxOrEvKZff34RCB-77">
          <mxGeometry y="30" width="210" height="30" as="geometry" />
        </mxCell>
        <mxCell id="kzhZ7mxOrEvKZff34RCB-79" value="appointment_id (FK → Appointment.appointment_id)" style="text;strokeColor=none;fillColor=none;align=left;verticalAlign=middle;spacingLeft=4;spacingRight=4;overflow=hidden;points=[[0,0.5],[1,0.5]];portConstraint=eastwest;rotatable=0;whiteSpace=wrap;html=1;" vertex="1" parent="kzhZ7mxOrEvKZff34RCB-77">
          <mxGeometry y="60" width="210" height="30" as="geometry" />
        </mxCell>
        <mxCell id="kzhZ7mxOrEvKZff34RCB-80" value=" start_time" style="text;strokeColor=none;fillColor=none;align=left;verticalAlign=middle;spacingLeft=4;spacingRight=4;overflow=hidden;points=[[0,0.5],[1,0.5]];portConstraint=eastwest;rotatable=0;whiteSpace=wrap;html=1;" vertex="1" parent="kzhZ7mxOrEvKZff34RCB-77">
          <mxGeometry y="90" width="210" height="30" as="geometry" />
        </mxCell>
        <mxCell id="kzhZ7mxOrEvKZff34RCB-81" value="end_time" style="text;strokeColor=none;fillColor=none;align=left;verticalAlign=middle;spacingLeft=4;spacingRight=4;overflow=hidden;points=[[0,0.5],[1,0.5]];portConstraint=eastwest;rotatable=0;whiteSpace=wrap;html=1;" vertex="1" parent="kzhZ7mxOrEvKZff34RCB-77">
          <mxGeometry y="120" width="210" height="30" as="geometry" />
        </mxCell>
        <mxCell id="kzhZ7mxOrEvKZff34RCB-82" value="call_url (if recorded)" style="text;strokeColor=none;fillColor=none;align=left;verticalAlign=middle;spacingLeft=4;spacingRight=4;overflow=hidden;points=[[0,0.5],[1,0.5]];portConstraint=eastwest;rotatable=0;whiteSpace=wrap;html=1;" vertex="1" parent="kzhZ7mxOrEvKZff34RCB-77">
          <mxGeometry y="150" width="210" height="30" as="geometry" />
        </mxCell>
        <mxCell id="kzhZ7mxOrEvKZff34RCB-83" value="Payment" style="swimlane;fontStyle=0;childLayout=stackLayout;horizontal=1;startSize=30;horizontalStack=0;resizeParent=1;resizeParentMax=0;resizeLast=0;collapsible=1;marginBottom=0;whiteSpace=wrap;html=1;" vertex="1" parent="1">
          <mxGeometry x="1349" y="937" width="210" height="210" as="geometry" />
        </mxCell>
        <mxCell id="kzhZ7mxOrEvKZff34RCB-84" value=" payment_id (PK)" style="text;strokeColor=none;fillColor=none;align=left;verticalAlign=middle;spacingLeft=4;spacingRight=4;overflow=hidden;points=[[0,0.5],[1,0.5]];portConstraint=eastwest;rotatable=0;whiteSpace=wrap;html=1;" vertex="1" parent="kzhZ7mxOrEvKZff34RCB-83">
          <mxGeometry y="30" width="210" height="30" as="geometry" />
        </mxCell>
        <mxCell id="kzhZ7mxOrEvKZff34RCB-85" value="appointment_id (FK → Appointment.appointment_id)" style="text;strokeColor=none;fillColor=none;align=left;verticalAlign=middle;spacingLeft=4;spacingRight=4;overflow=hidden;points=[[0,0.5],[1,0.5]];portConstraint=eastwest;rotatable=0;whiteSpace=wrap;html=1;" vertex="1" parent="kzhZ7mxOrEvKZff34RCB-83">
          <mxGeometry y="60" width="210" height="30" as="geometry" />
        </mxCell>
        <mxCell id="kzhZ7mxOrEvKZff34RCB-86" value=" amount" style="text;strokeColor=none;fillColor=none;align=left;verticalAlign=middle;spacingLeft=4;spacingRight=4;overflow=hidden;points=[[0,0.5],[1,0.5]];portConstraint=eastwest;rotatable=0;whiteSpace=wrap;html=1;" vertex="1" parent="kzhZ7mxOrEvKZff34RCB-83">
          <mxGeometry y="90" width="210" height="30" as="geometry" />
        </mxCell>
        <mxCell id="kzhZ7mxOrEvKZff34RCB-87" value="method (enum: &#39;momo&#39;, &#39;vnpay&#39;, &#39;stripe&#39;)&lt;div&gt;&lt;br/&gt;&lt;/div&gt;" style="text;strokeColor=none;fillColor=none;align=left;verticalAlign=middle;spacingLeft=4;spacingRight=4;overflow=hidden;points=[[0,0.5],[1,0.5]];portConstraint=eastwest;rotatable=0;whiteSpace=wrap;html=1;" vertex="1" parent="kzhZ7mxOrEvKZff34RCB-83">
          <mxGeometry y="120" width="210" height="30" as="geometry" />
        </mxCell>
        <mxCell id="kzhZ7mxOrEvKZff34RCB-88" value="status (enum: &#39;pending&#39;, &#39;success&#39;, &#39;failed&#39;)" style="text;strokeColor=none;fillColor=none;align=left;verticalAlign=middle;spacingLeft=4;spacingRight=4;overflow=hidden;points=[[0,0.5],[1,0.5]];portConstraint=eastwest;rotatable=0;whiteSpace=wrap;html=1;" vertex="1" parent="kzhZ7mxOrEvKZff34RCB-83">
          <mxGeometry y="150" width="210" height="30" as="geometry" />
        </mxCell>
        <mxCell id="kzhZ7mxOrEvKZff34RCB-89" value=" transaction_time" style="text;strokeColor=none;fillColor=none;align=left;verticalAlign=middle;spacingLeft=4;spacingRight=4;overflow=hidden;points=[[0,0.5],[1,0.5]];portConstraint=eastwest;rotatable=0;whiteSpace=wrap;html=1;" vertex="1" parent="kzhZ7mxOrEvKZff34RCB-83">
          <mxGeometry y="180" width="210" height="30" as="geometry" />
        </mxCell>
        <mxCell id="kzhZ7mxOrEvKZff34RCB-90" value="Rating" style="swimlane;fontStyle=0;childLayout=stackLayout;horizontal=1;startSize=30;horizontalStack=0;resizeParent=1;resizeParentMax=0;resizeLast=0;collapsible=1;marginBottom=0;whiteSpace=wrap;html=1;" vertex="1" parent="1">
          <mxGeometry x="1363" y="609" width="210" height="210" as="geometry" />
        </mxCell>
        <mxCell id="kzhZ7mxOrEvKZff34RCB-91" value=" rating_id (PK)" style="text;strokeColor=none;fillColor=none;align=left;verticalAlign=middle;spacingLeft=4;spacingRight=4;overflow=hidden;points=[[0,0.5],[1,0.5]];portConstraint=eastwest;rotatable=0;whiteSpace=wrap;html=1;" vertex="1" parent="kzhZ7mxOrEvKZff34RCB-90">
          <mxGeometry y="30" width="210" height="30" as="geometry" />
        </mxCell>
        <mxCell id="kzhZ7mxOrEvKZff34RCB-92" value="appointment_id (FK → Appointment.appointment_id)" style="text;strokeColor=none;fillColor=none;align=left;verticalAlign=middle;spacingLeft=4;spacingRight=4;overflow=hidden;points=[[0,0.5],[1,0.5]];portConstraint=eastwest;rotatable=0;whiteSpace=wrap;html=1;" vertex="1" parent="kzhZ7mxOrEvKZff34RCB-90">
          <mxGeometry y="60" width="210" height="30" as="geometry" />
        </mxCell>
        <mxCell id="kzhZ7mxOrEvKZff34RCB-93" value=" patient_id (FK → Patient.patient_id)" style="text;strokeColor=none;fillColor=none;align=left;verticalAlign=middle;spacingLeft=4;spacingRight=4;overflow=hidden;points=[[0,0.5],[1,0.5]];portConstraint=eastwest;rotatable=0;whiteSpace=wrap;html=1;" vertex="1" parent="kzhZ7mxOrEvKZff34RCB-90">
          <mxGeometry y="90" width="210" height="30" as="geometry" />
        </mxCell>
        <mxCell id="kzhZ7mxOrEvKZff34RCB-94" value=" doctor_id (FK → Doctor.doctor_id)" style="text;strokeColor=none;fillColor=none;align=left;verticalAlign=middle;spacingLeft=4;spacingRight=4;overflow=hidden;points=[[0,0.5],[1,0.5]];portConstraint=eastwest;rotatable=0;whiteSpace=wrap;html=1;" vertex="1" parent="kzhZ7mxOrEvKZff34RCB-90">
          <mxGeometry y="120" width="210" height="30" as="geometry" />
        </mxCell>
        <mxCell id="kzhZ7mxOrEvKZff34RCB-95" value=" score (1-5)" style="text;strokeColor=none;fillColor=none;align=left;verticalAlign=middle;spacingLeft=4;spacingRight=4;overflow=hidden;points=[[0,0.5],[1,0.5]];portConstraint=eastwest;rotatable=0;whiteSpace=wrap;html=1;" vertex="1" parent="kzhZ7mxOrEvKZff34RCB-90">
          <mxGeometry y="150" width="210" height="30" as="geometry" />
        </mxCell>
        <mxCell id="kzhZ7mxOrEvKZff34RCB-96" value="comment" style="text;strokeColor=none;fillColor=none;align=left;verticalAlign=middle;spacingLeft=4;spacingRight=4;overflow=hidden;points=[[0,0.5],[1,0.5]];portConstraint=eastwest;rotatable=0;whiteSpace=wrap;html=1;" vertex="1" parent="kzhZ7mxOrEvKZff34RCB-90">
          <mxGeometry y="180" width="210" height="30" as="geometry" />
        </mxCell>
        <mxCell id="kzhZ7mxOrEvKZff34RCB-97" value="Notification" style="swimlane;fontStyle=0;childLayout=stackLayout;horizontal=1;startSize=30;horizontalStack=0;resizeParent=1;resizeParentMax=0;resizeLast=0;collapsible=1;marginBottom=0;whiteSpace=wrap;html=1;" vertex="1" parent="1">
          <mxGeometry x="966" y="1151" width="210" height="180" as="geometry" />
        </mxCell>
        <mxCell id="kzhZ7mxOrEvKZff34RCB-98" value="notification_id (PK)" style="text;strokeColor=none;fillColor=none;align=left;verticalAlign=middle;spacingLeft=4;spacingRight=4;overflow=hidden;points=[[0,0.5],[1,0.5]];portConstraint=eastwest;rotatable=0;whiteSpace=wrap;html=1;" vertex="1" parent="kzhZ7mxOrEvKZff34RCB-97">
          <mxGeometry y="30" width="210" height="30" as="geometry" />
        </mxCell>
        <mxCell id="kzhZ7mxOrEvKZff34RCB-99" value="user_id (FK → User.user_id)" style="text;strokeColor=none;fillColor=none;align=left;verticalAlign=middle;spacingLeft=4;spacingRight=4;overflow=hidden;points=[[0,0.5],[1,0.5]];portConstraint=eastwest;rotatable=0;whiteSpace=wrap;html=1;" vertex="1" parent="kzhZ7mxOrEvKZff34RCB-97">
          <mxGeometry y="60" width="210" height="30" as="geometry" />
        </mxCell>
        <mxCell id="kzhZ7mxOrEvKZff34RCB-100" value="    message" style="text;strokeColor=none;fillColor=none;align=left;verticalAlign=middle;spacingLeft=4;spacingRight=4;overflow=hidden;points=[[0,0.5],[1,0.5]];portConstraint=eastwest;rotatable=0;whiteSpace=wrap;html=1;" vertex="1" parent="kzhZ7mxOrEvKZff34RCB-97">
          <mxGeometry y="90" width="210" height="30" as="geometry" />
        </mxCell>
        <mxCell id="kzhZ7mxOrEvKZff34RCB-101" value="is_read" style="text;strokeColor=none;fillColor=none;align=left;verticalAlign=middle;spacingLeft=4;spacingRight=4;overflow=hidden;points=[[0,0.5],[1,0.5]];portConstraint=eastwest;rotatable=0;whiteSpace=wrap;html=1;" vertex="1" parent="kzhZ7mxOrEvKZff34RCB-97">
          <mxGeometry y="120" width="210" height="30" as="geometry" />
        </mxCell>
        <mxCell id="kzhZ7mxOrEvKZff34RCB-102" value="created_at" style="text;strokeColor=none;fillColor=none;align=left;verticalAlign=middle;spacingLeft=4;spacingRight=4;overflow=hidden;points=[[0,0.5],[1,0.5]];portConstraint=eastwest;rotatable=0;whiteSpace=wrap;html=1;" vertex="1" parent="kzhZ7mxOrEvKZff34RCB-97">
          <mxGeometry y="150" width="210" height="30" as="geometry" />
        </mxCell>
        <mxCell id="kzhZ7mxOrEvKZff34RCB-105" value="AuditLog" style="swimlane;fontStyle=0;childLayout=stackLayout;horizontal=1;startSize=30;horizontalStack=0;resizeParent=1;resizeParentMax=0;resizeLast=0;collapsible=1;marginBottom=0;whiteSpace=wrap;html=1;" vertex="1" parent="1">
          <mxGeometry x="-164" y="1349" width="210" height="240" as="geometry" />
        </mxCell>
        <mxCell id="kzhZ7mxOrEvKZff34RCB-106" value=" log_id (PK)" style="text;strokeColor=none;fillColor=none;align=left;verticalAlign=middle;spacingLeft=4;spacingRight=4;overflow=hidden;points=[[0,0.5],[1,0.5]];portConstraint=eastwest;rotatable=0;whiteSpace=wrap;html=1;" vertex="1" parent="kzhZ7mxOrEvKZff34RCB-105">
          <mxGeometry y="30" width="210" height="30" as="geometry" />
        </mxCell>
        <mxCell id="kzhZ7mxOrEvKZff34RCB-107" value=" user_id (FK → User.user_id)" style="text;strokeColor=none;fillColor=none;align=left;verticalAlign=middle;spacingLeft=4;spacingRight=4;overflow=hidden;points=[[0,0.5],[1,0.5]];portConstraint=eastwest;rotatable=0;whiteSpace=wrap;html=1;" vertex="1" parent="kzhZ7mxOrEvKZff34RCB-105">
          <mxGeometry y="60" width="210" height="30" as="geometry" />
        </mxCell>
        <mxCell id="kzhZ7mxOrEvKZff34RCB-108" value=" action" style="text;strokeColor=none;fillColor=none;align=left;verticalAlign=middle;spacingLeft=4;spacingRight=4;overflow=hidden;points=[[0,0.5],[1,0.5]];portConstraint=eastwest;rotatable=0;whiteSpace=wrap;html=1;" vertex="1" parent="kzhZ7mxOrEvKZff34RCB-105">
          <mxGeometry y="90" width="210" height="30" as="geometry" />
        </mxCell>
        <mxCell id="kzhZ7mxOrEvKZff34RCB-109" value=" timestamp" style="text;strokeColor=none;fillColor=none;align=left;verticalAlign=middle;spacingLeft=4;spacingRight=4;overflow=hidden;points=[[0,0.5],[1,0.5]];portConstraint=eastwest;rotatable=0;whiteSpace=wrap;html=1;" vertex="1" parent="kzhZ7mxOrEvKZff34RCB-105">
          <mxGeometry y="120" width="210" height="30" as="geometry" />
        </mxCell>
        <mxCell id="kzhZ7mxOrEvKZff34RCB-110" value="target_id" style="text;strokeColor=none;fillColor=none;align=left;verticalAlign=middle;spacingLeft=4;spacingRight=4;overflow=hidden;points=[[0,0.5],[1,0.5]];portConstraint=eastwest;rotatable=0;whiteSpace=wrap;html=1;" vertex="1" parent="kzhZ7mxOrEvKZff34RCB-105">
          <mxGeometry y="150" width="210" height="30" as="geometry" />
        </mxCell>
        <mxCell id="kzhZ7mxOrEvKZff34RCB-111" value="target_table" style="text;strokeColor=none;fillColor=none;align=left;verticalAlign=middle;spacingLeft=4;spacingRight=4;overflow=hidden;points=[[0,0.5],[1,0.5]];portConstraint=eastwest;rotatable=0;whiteSpace=wrap;html=1;" vertex="1" parent="kzhZ7mxOrEvKZff34RCB-105">
          <mxGeometry y="180" width="210" height="30" as="geometry" />
        </mxCell>
        <mxCell id="kzhZ7mxOrEvKZff34RCB-189" value="admin_id" style="text;strokeColor=none;fillColor=none;align=left;verticalAlign=middle;spacingLeft=4;spacingRight=4;overflow=hidden;points=[[0,0.5],[1,0.5]];portConstraint=eastwest;rotatable=0;whiteSpace=wrap;html=1;" vertex="1" parent="kzhZ7mxOrEvKZff34RCB-105">
          <mxGeometry y="210" width="210" height="30" as="geometry" />
        </mxCell>
        <mxCell id="kzhZ7mxOrEvKZff34RCB-112" value="Admin" style="swimlane;fontStyle=0;childLayout=stackLayout;horizontal=1;startSize=30;horizontalStack=0;resizeParent=1;resizeParentMax=0;resizeLast=0;collapsible=1;marginBottom=0;whiteSpace=wrap;html=1;" vertex="1" parent="1">
          <mxGeometry x="-160" y="1163" width="210" height="90" as="geometry" />
        </mxCell>
        <mxCell id="kzhZ7mxOrEvKZff34RCB-113" value="admin_id" style="text;strokeColor=none;fillColor=none;align=left;verticalAlign=middle;spacingLeft=4;spacingRight=4;overflow=hidden;points=[[0,0.5],[1,0.5]];portConstraint=eastwest;rotatable=0;whiteSpace=wrap;html=1;" vertex="1" parent="kzhZ7mxOrEvKZff34RCB-112">
          <mxGeometry y="30" width="210" height="30" as="geometry" />
        </mxCell>
        <mxCell id="kzhZ7mxOrEvKZff34RCB-114" value="permissions" style="text;strokeColor=none;fillColor=none;align=left;verticalAlign=middle;spacingLeft=4;spacingRight=4;overflow=hidden;points=[[0,0.5],[1,0.5]];portConstraint=eastwest;rotatable=0;whiteSpace=wrap;html=1;" vertex="1" parent="kzhZ7mxOrEvKZff34RCB-112">
          <mxGeometry y="60" width="210" height="30" as="geometry" />
        </mxCell>
        <mxCell id="kzhZ7mxOrEvKZff34RCB-120" value="&lt;code data-end=&quot;2992&quot; data-start=&quot;2981&quot;&gt;Diagnosis&lt;/code&gt;" style="swimlane;fontStyle=0;childLayout=stackLayout;horizontal=1;startSize=30;horizontalStack=0;resizeParent=1;resizeParentMax=0;resizeLast=0;collapsible=1;marginBottom=0;whiteSpace=wrap;html=1;" vertex="1" parent="1">
          <mxGeometry x="618" y="-153" width="210" height="240" as="geometry" />
        </mxCell>
        <mxCell id="kzhZ7mxOrEvKZff34RCB-121" value="diagnosis_id" style="text;strokeColor=none;fillColor=none;align=left;verticalAlign=middle;spacingLeft=4;spacingRight=4;overflow=hidden;points=[[0,0.5],[1,0.5]];portConstraint=eastwest;rotatable=0;whiteSpace=wrap;html=1;" vertex="1" parent="kzhZ7mxOrEvKZff34RCB-120">
          <mxGeometry y="30" width="210" height="30" as="geometry" />
        </mxCell>
        <mxCell id="kzhZ7mxOrEvKZff34RCB-127" value="diagnosis_ai (text)" style="text;strokeColor=none;fillColor=none;align=left;verticalAlign=middle;spacingLeft=4;spacingRight=4;overflow=hidden;points=[[0,0.5],[1,0.5]];portConstraint=eastwest;rotatable=0;whiteSpace=wrap;html=1;" vertex="1" parent="kzhZ7mxOrEvKZff34RCB-120">
          <mxGeometry y="60" width="210" height="30" as="geometry" />
        </mxCell>
        <mxCell id="kzhZ7mxOrEvKZff34RCB-122" value="symptoms_input_id" style="text;strokeColor=none;fillColor=none;align=left;verticalAlign=middle;spacingLeft=4;spacingRight=4;overflow=hidden;points=[[0,0.5],[1,0.5]];portConstraint=eastwest;rotatable=0;whiteSpace=wrap;html=1;" vertex="1" parent="kzhZ7mxOrEvKZff34RCB-120">
          <mxGeometry y="90" width="210" height="30" as="geometry" />
        </mxCell>
        <mxCell id="kzhZ7mxOrEvKZff34RCB-123" value="predicted_disease" style="text;strokeColor=none;fillColor=none;align=left;verticalAlign=middle;spacingLeft=4;spacingRight=4;overflow=hidden;points=[[0,0.5],[1,0.5]];portConstraint=eastwest;rotatable=0;whiteSpace=wrap;html=1;" vertex="1" parent="kzhZ7mxOrEvKZff34RCB-120">
          <mxGeometry y="120" width="210" height="30" as="geometry" />
        </mxCell>
        <mxCell id="kzhZ7mxOrEvKZff34RCB-124" value="severity" style="text;strokeColor=none;fillColor=none;align=left;verticalAlign=middle;spacingLeft=4;spacingRight=4;overflow=hidden;points=[[0,0.5],[1,0.5]];portConstraint=eastwest;rotatable=0;whiteSpace=wrap;html=1;" vertex="1" parent="kzhZ7mxOrEvKZff34RCB-120">
          <mxGeometry y="150" width="210" height="30" as="geometry" />
        </mxCell>
        <mxCell id="kzhZ7mxOrEvKZff34RCB-125" value="suggested_by" style="text;strokeColor=none;fillColor=none;align=left;verticalAlign=middle;spacingLeft=4;spacingRight=4;overflow=hidden;points=[[0,0.5],[1,0.5]];portConstraint=eastwest;rotatable=0;whiteSpace=wrap;html=1;" vertex="1" parent="kzhZ7mxOrEvKZff34RCB-120">
          <mxGeometry y="180" width="210" height="30" as="geometry" />
        </mxCell>
        <mxCell id="kzhZ7mxOrEvKZff34RCB-126" value="created_at" style="text;strokeColor=none;fillColor=none;align=left;verticalAlign=middle;spacingLeft=4;spacingRight=4;overflow=hidden;points=[[0,0.5],[1,0.5]];portConstraint=eastwest;rotatable=0;whiteSpace=wrap;html=1;" vertex="1" parent="kzhZ7mxOrEvKZff34RCB-120">
          <mxGeometry y="210" width="210" height="30" as="geometry" />
        </mxCell>
        <mxCell id="kzhZ7mxOrEvKZff34RCB-129" value="Medicines" style="swimlane;fontStyle=0;childLayout=stackLayout;horizontal=1;startSize=30;horizontalStack=0;resizeParent=1;resizeParentMax=0;resizeLast=0;collapsible=1;marginBottom=0;whiteSpace=wrap;html=1;" vertex="1" parent="1">
          <mxGeometry x="127" y="1476" width="210" height="270" as="geometry" />
        </mxCell>
        <mxCell id="kzhZ7mxOrEvKZff34RCB-130" value="medicines_id" style="text;strokeColor=none;fillColor=none;align=left;verticalAlign=middle;spacingLeft=4;spacingRight=4;overflow=hidden;points=[[0,0.5],[1,0.5]];portConstraint=eastwest;rotatable=0;whiteSpace=wrap;html=1;" vertex="1" parent="kzhZ7mxOrEvKZff34RCB-129">
          <mxGeometry y="30" width="210" height="30" as="geometry" />
        </mxCell>
        <mxCell id="kzhZ7mxOrEvKZff34RCB-131" value="medicines_name" style="text;strokeColor=none;fillColor=none;align=left;verticalAlign=middle;spacingLeft=4;spacingRight=4;overflow=hidden;points=[[0,0.5],[1,0.5]];portConstraint=eastwest;rotatable=0;whiteSpace=wrap;html=1;" vertex="1" parent="kzhZ7mxOrEvKZff34RCB-129">
          <mxGeometry y="60" width="210" height="30" as="geometry" />
        </mxCell>
        <mxCell id="kzhZ7mxOrEvKZff34RCB-132" value="description" style="text;strokeColor=none;fillColor=none;align=left;verticalAlign=middle;spacingLeft=4;spacingRight=4;overflow=hidden;points=[[0,0.5],[1,0.5]];portConstraint=eastwest;rotatable=0;whiteSpace=wrap;html=1;" vertex="1" parent="kzhZ7mxOrEvKZff34RCB-129">
          <mxGeometry y="90" width="210" height="30" as="geometry" />
        </mxCell>
        <mxCell id="kzhZ7mxOrEvKZff34RCB-133" value="dosage" style="text;strokeColor=none;fillColor=none;align=left;verticalAlign=middle;spacingLeft=4;spacingRight=4;overflow=hidden;points=[[0,0.5],[1,0.5]];portConstraint=eastwest;rotatable=0;whiteSpace=wrap;html=1;" vertex="1" parent="kzhZ7mxOrEvKZff34RCB-129">
          <mxGeometry y="120" width="210" height="30" as="geometry" />
        </mxCell>
        <mxCell id="kzhZ7mxOrEvKZff34RCB-134" value="unit" style="text;strokeColor=none;fillColor=none;align=left;verticalAlign=middle;spacingLeft=4;spacingRight=4;overflow=hidden;points=[[0,0.5],[1,0.5]];portConstraint=eastwest;rotatable=0;whiteSpace=wrap;html=1;" vertex="1" parent="kzhZ7mxOrEvKZff34RCB-129">
          <mxGeometry y="150" width="210" height="30" as="geometry" />
        </mxCell>
        <mxCell id="kzhZ7mxOrEvKZff34RCB-135" value="side_effects" style="text;strokeColor=none;fillColor=none;align=left;verticalAlign=middle;spacingLeft=4;spacingRight=4;overflow=hidden;points=[[0,0.5],[1,0.5]];portConstraint=eastwest;rotatable=0;whiteSpace=wrap;html=1;" vertex="1" parent="kzhZ7mxOrEvKZff34RCB-129">
          <mxGeometry y="180" width="210" height="30" as="geometry" />
        </mxCell>
        <mxCell id="kzhZ7mxOrEvKZff34RCB-187" value="created_by" style="text;strokeColor=none;fillColor=none;align=left;verticalAlign=middle;spacingLeft=4;spacingRight=4;overflow=hidden;points=[[0,0.5],[1,0.5]];portConstraint=eastwest;rotatable=0;whiteSpace=wrap;html=1;" vertex="1" parent="kzhZ7mxOrEvKZff34RCB-129">
          <mxGeometry y="210" width="210" height="30" as="geometry" />
        </mxCell>
        <mxCell id="kzhZ7mxOrEvKZff34RCB-188" value="created_at" style="text;strokeColor=none;fillColor=none;align=left;verticalAlign=middle;spacingLeft=4;spacingRight=4;overflow=hidden;points=[[0,0.5],[1,0.5]];portConstraint=eastwest;rotatable=0;whiteSpace=wrap;html=1;" vertex="1" parent="kzhZ7mxOrEvKZff34RCB-129">
          <mxGeometry y="240" width="210" height="30" as="geometry" />
        </mxCell>
        <mxCell id="kzhZ7mxOrEvKZff34RCB-138" value="Medicines" style="swimlane;fontStyle=0;childLayout=stackLayout;horizontal=1;startSize=30;horizontalStack=0;resizeParent=1;resizeParentMax=0;resizeLast=0;collapsible=1;marginBottom=0;whiteSpace=wrap;html=1;" vertex="1" parent="1">
          <mxGeometry x="600" y="1374" width="210" height="150" as="geometry" />
        </mxCell>
        <mxCell id="kzhZ7mxOrEvKZff34RCB-139" value="prescriptions_id" style="text;strokeColor=none;fillColor=none;align=left;verticalAlign=middle;spacingLeft=4;spacingRight=4;overflow=hidden;points=[[0,0.5],[1,0.5]];portConstraint=eastwest;rotatable=0;whiteSpace=wrap;html=1;" vertex="1" parent="kzhZ7mxOrEvKZff34RCB-138">
          <mxGeometry y="30" width="210" height="30" as="geometry" />
        </mxCell>
        <mxCell id="kzhZ7mxOrEvKZff34RCB-140" value="appointment_id" style="text;strokeColor=none;fillColor=none;align=left;verticalAlign=middle;spacingLeft=4;spacingRight=4;overflow=hidden;points=[[0,0.5],[1,0.5]];portConstraint=eastwest;rotatable=0;whiteSpace=wrap;html=1;" vertex="1" parent="kzhZ7mxOrEvKZff34RCB-138">
          <mxGeometry y="60" width="210" height="30" as="geometry" />
        </mxCell>
        <mxCell id="kzhZ7mxOrEvKZff34RCB-141" value="doctor_id" style="text;strokeColor=none;fillColor=none;align=left;verticalAlign=middle;spacingLeft=4;spacingRight=4;overflow=hidden;points=[[0,0.5],[1,0.5]];portConstraint=eastwest;rotatable=0;whiteSpace=wrap;html=1;" vertex="1" parent="kzhZ7mxOrEvKZff34RCB-138">
          <mxGeometry y="90" width="210" height="30" as="geometry" />
        </mxCell>
        <mxCell id="kzhZ7mxOrEvKZff34RCB-142" value="created_at" style="text;strokeColor=none;fillColor=none;align=left;verticalAlign=middle;spacingLeft=4;spacingRight=4;overflow=hidden;points=[[0,0.5],[1,0.5]];portConstraint=eastwest;rotatable=0;whiteSpace=wrap;html=1;" vertex="1" parent="kzhZ7mxOrEvKZff34RCB-138">
          <mxGeometry y="120" width="210" height="30" as="geometry" />
        </mxCell>
        <mxCell id="kzhZ7mxOrEvKZff34RCB-145" value="Prescription_Medicines" style="swimlane;fontStyle=0;childLayout=stackLayout;horizontal=1;startSize=30;horizontalStack=0;resizeParent=1;resizeParentMax=0;resizeLast=0;collapsible=1;marginBottom=0;whiteSpace=wrap;html=1;" vertex="1" parent="1">
          <mxGeometry x="1119" y="1911" width="210" height="300" as="geometry" />
        </mxCell>
        <mxCell id="kzhZ7mxOrEvKZff34RCB-147" value="prescriptic_medicines_id" style="text;strokeColor=none;fillColor=none;align=left;verticalAlign=middle;spacingLeft=4;spacingRight=4;overflow=hidden;points=[[0,0.5],[1,0.5]];portConstraint=eastwest;rotatable=0;whiteSpace=wrap;html=1;" vertex="1" parent="kzhZ7mxOrEvKZff34RCB-145">
          <mxGeometry y="30" width="210" height="30" as="geometry" />
        </mxCell>
        <mxCell id="kzhZ7mxOrEvKZff34RCB-148" value="prescription_id" style="text;strokeColor=none;fillColor=none;align=left;verticalAlign=middle;spacingLeft=4;spacingRight=4;overflow=hidden;points=[[0,0.5],[1,0.5]];portConstraint=eastwest;rotatable=0;whiteSpace=wrap;html=1;" vertex="1" parent="kzhZ7mxOrEvKZff34RCB-145">
          <mxGeometry y="60" width="210" height="30" as="geometry" />
        </mxCell>
        <mxCell id="kzhZ7mxOrEvKZff34RCB-149" value="medicine_id (FK)" style="text;strokeColor=none;fillColor=none;align=left;verticalAlign=middle;spacingLeft=4;spacingRight=4;overflow=hidden;points=[[0,0.5],[1,0.5]];portConstraint=eastwest;rotatable=0;whiteSpace=wrap;html=1;" vertex="1" parent="kzhZ7mxOrEvKZff34RCB-145">
          <mxGeometry y="90" width="210" height="30" as="geometry" />
        </mxCell>
        <mxCell id="kzhZ7mxOrEvKZff34RCB-150" value="quantity" style="text;strokeColor=none;fillColor=none;align=left;verticalAlign=middle;spacingLeft=4;spacingRight=4;overflow=hidden;points=[[0,0.5],[1,0.5]];portConstraint=eastwest;rotatable=0;whiteSpace=wrap;html=1;" vertex="1" parent="kzhZ7mxOrEvKZff34RCB-145">
          <mxGeometry y="120" width="210" height="30" as="geometry" />
        </mxCell>
        <mxCell id="kzhZ7mxOrEvKZff34RCB-151" value="usage_note" style="text;strokeColor=none;fillColor=none;align=left;verticalAlign=middle;spacingLeft=4;spacingRight=4;overflow=hidden;points=[[0,0.5],[1,0.5]];portConstraint=eastwest;rotatable=0;whiteSpace=wrap;html=1;" vertex="1" parent="kzhZ7mxOrEvKZff34RCB-145">
          <mxGeometry y="150" width="210" height="30" as="geometry" />
        </mxCell>
        <mxCell id="kzhZ7mxOrEvKZff34RCB-190" value="dosage" style="text;strokeColor=none;fillColor=none;align=left;verticalAlign=middle;spacingLeft=4;spacingRight=4;overflow=hidden;points=[[0,0.5],[1,0.5]];portConstraint=eastwest;rotatable=0;whiteSpace=wrap;html=1;" vertex="1" parent="kzhZ7mxOrEvKZff34RCB-145">
          <mxGeometry y="180" width="210" height="30" as="geometry" />
        </mxCell>
        <mxCell id="kzhZ7mxOrEvKZff34RCB-191" value="init" style="text;strokeColor=none;fillColor=none;align=left;verticalAlign=middle;spacingLeft=4;spacingRight=4;overflow=hidden;points=[[0,0.5],[1,0.5]];portConstraint=eastwest;rotatable=0;whiteSpace=wrap;html=1;" vertex="1" parent="kzhZ7mxOrEvKZff34RCB-145">
          <mxGeometry y="210" width="210" height="30" as="geometry" />
        </mxCell>
        <mxCell id="kzhZ7mxOrEvKZff34RCB-192" value="duration" style="text;strokeColor=none;fillColor=none;align=left;verticalAlign=middle;spacingLeft=4;spacingRight=4;overflow=hidden;points=[[0,0.5],[1,0.5]];portConstraint=eastwest;rotatable=0;whiteSpace=wrap;html=1;" vertex="1" parent="kzhZ7mxOrEvKZff34RCB-145">
          <mxGeometry y="240" width="210" height="30" as="geometry" />
        </mxCell>
        <mxCell id="kzhZ7mxOrEvKZff34RCB-193" value="note" style="text;strokeColor=none;fillColor=none;align=left;verticalAlign=middle;spacingLeft=4;spacingRight=4;overflow=hidden;points=[[0,0.5],[1,0.5]];portConstraint=eastwest;rotatable=0;whiteSpace=wrap;html=1;" vertex="1" parent="kzhZ7mxOrEvKZff34RCB-145">
          <mxGeometry y="270" width="210" height="30" as="geometry" />
        </mxCell>
        <mxCell id="kzhZ7mxOrEvKZff34RCB-152" style="rounded=0;orthogonalLoop=1;jettySize=auto;html=1;entryX=0.505;entryY=1.308;entryDx=0;entryDy=0;entryPerimeter=0;startArrow=ERoneToMany;startFill=0;" edge="1" parent="1" source="kzhZ7mxOrEvKZff34RCB-25" target="kzhZ7mxOrEvKZff34RCB-13">
          <mxGeometry relative="1" as="geometry" />
        </mxCell>
        <mxCell id="kzhZ7mxOrEvKZff34RCB-156" value="" style="fontSize=12;html=1;endArrow=ERoneToMany;startArrow=ERmandOne;rounded=0;exitX=1;exitY=0.5;exitDx=0;exitDy=0;entryX=0;entryY=0.5;entryDx=0;entryDy=0;" edge="1" parent="1" source="kzhZ7mxOrEvKZff34RCB-18" target="kzhZ7mxOrEvKZff34RCB-43">
          <mxGeometry width="100" height="100" relative="1" as="geometry">
            <mxPoint x="583" y="593" as="sourcePoint" />
            <mxPoint x="683" y="493" as="targetPoint" />
          </mxGeometry>
        </mxCell>
        <mxCell id="kzhZ7mxOrEvKZff34RCB-158" value="" style="fontSize=12;html=1;endArrow=ERoneToMany;startArrow=ERzeroToOne;rounded=0;entryX=0;entryY=0.5;entryDx=0;entryDy=0;exitX=1;exitY=0.5;exitDx=0;exitDy=0;" edge="1" parent="1" source="kzhZ7mxOrEvKZff34RCB-16" target="kzhZ7mxOrEvKZff34RCB-55">
          <mxGeometry width="100" height="100" relative="1" as="geometry">
            <mxPoint x="583" y="385" as="sourcePoint" />
            <mxPoint x="683" y="285" as="targetPoint" />
          </mxGeometry>
        </mxCell>
        <mxCell id="kzhZ7mxOrEvKZff34RCB-159" value="" style="edgeStyle=orthogonalEdgeStyle;fontSize=12;html=1;endArrow=ERoneToMany;startArrow=ERzeroToOne;rounded=0;exitX=1.025;exitY=-0.1;exitDx=0;exitDy=0;exitPerimeter=0;entryX=0;entryY=0.5;entryDx=0;entryDy=0;curved=1;" edge="1" parent="1" source="kzhZ7mxOrEvKZff34RCB-28" target="kzhZ7mxOrEvKZff34RCB-46">
          <mxGeometry width="100" height="100" relative="1" as="geometry">
            <mxPoint x="583" y="522" as="sourcePoint" />
            <mxPoint x="577" y="516" as="targetPoint" />
            <Array as="points">
              <mxPoint x="395" y="572" />
              <mxPoint x="687" y="572" />
              <mxPoint x="687" y="643" />
              <mxPoint x="984" y="643" />
            </Array>
          </mxGeometry>
        </mxCell>
        <mxCell id="kzhZ7mxOrEvKZff34RCB-160" value="" style="edgeStyle=entityRelationEdgeStyle;fontSize=12;html=1;endArrow=ERoneToMany;startArrow=ERzeroToOne;rounded=0;exitX=1;exitY=0.25;exitDx=0;exitDy=0;entryX=0;entryY=0.5;entryDx=0;entryDy=0;" edge="1" parent="1" source="kzhZ7mxOrEvKZff34RCB-25" target="kzhZ7mxOrEvKZff34RCB-57">
          <mxGeometry width="100" height="100" relative="1" as="geometry">
            <mxPoint x="583" y="522" as="sourcePoint" />
            <mxPoint x="683" y="422" as="targetPoint" />
          </mxGeometry>
        </mxCell>
        <mxCell id="kzhZ7mxOrEvKZff34RCB-167" value="" style="edgeStyle=entityRelationEdgeStyle;fontSize=12;html=1;endArrow=ERoneToMany;startArrow=ERzeroToOne;rounded=0;exitX=1.018;exitY=-0.177;exitDx=0;exitDy=0;exitPerimeter=0;entryX=0;entryY=0.5;entryDx=0;entryDy=0;" edge="1" parent="1" source="kzhZ7mxOrEvKZff34RCB-29" target="kzhZ7mxOrEvKZff34RCB-161">
          <mxGeometry width="100" height="100" relative="1" as="geometry">
            <mxPoint x="394" y="546" as="sourcePoint" />
            <mxPoint x="984" y="761" as="targetPoint" />
          </mxGeometry>
        </mxCell>
        <mxCell id="kzhZ7mxOrEvKZff34RCB-161" value="ChatRoom" style="swimlane;fontStyle=0;childLayout=stackLayout;horizontal=1;startSize=30;horizontalStack=0;resizeParent=1;resizeParentMax=0;resizeLast=0;collapsible=1;marginBottom=0;whiteSpace=wrap;html=1;" vertex="1" parent="1">
          <mxGeometry x="484" y="614" width="210" height="180" as="geometry" />
        </mxCell>
        <mxCell id="kzhZ7mxOrEvKZff34RCB-162" value="room_id PK" style="text;strokeColor=none;fillColor=none;align=left;verticalAlign=middle;spacingLeft=4;spacingRight=4;overflow=hidden;points=[[0,0.5],[1,0.5]];portConstraint=eastwest;rotatable=0;whiteSpace=wrap;html=1;" vertex="1" parent="kzhZ7mxOrEvKZff34RCB-161">
          <mxGeometry y="30" width="210" height="30" as="geometry" />
        </mxCell>
        <mxCell id="kzhZ7mxOrEvKZff34RCB-163" value="patient_id" style="text;strokeColor=none;fillColor=none;align=left;verticalAlign=middle;spacingLeft=4;spacingRight=4;overflow=hidden;points=[[0,0.5],[1,0.5]];portConstraint=eastwest;rotatable=0;whiteSpace=wrap;html=1;" vertex="1" parent="kzhZ7mxOrEvKZff34RCB-161">
          <mxGeometry y="60" width="210" height="30" as="geometry" />
        </mxCell>
        <mxCell id="kzhZ7mxOrEvKZff34RCB-164" value="doctor_id FK" style="text;strokeColor=none;fillColor=none;align=left;verticalAlign=middle;spacingLeft=4;spacingRight=4;overflow=hidden;points=[[0,0.5],[1,0.5]];portConstraint=eastwest;rotatable=0;whiteSpace=wrap;html=1;" vertex="1" parent="kzhZ7mxOrEvKZff34RCB-161">
          <mxGeometry y="90" width="210" height="30" as="geometry" />
        </mxCell>
        <mxCell id="kzhZ7mxOrEvKZff34RCB-165" value="appointment_id FK NULL" style="text;strokeColor=none;fillColor=none;align=left;verticalAlign=middle;spacingLeft=4;spacingRight=4;overflow=hidden;points=[[0,0.5],[1,0.5]];portConstraint=eastwest;rotatable=0;whiteSpace=wrap;html=1;" vertex="1" parent="kzhZ7mxOrEvKZff34RCB-161">
          <mxGeometry y="120" width="210" height="30" as="geometry" />
        </mxCell>
        <mxCell id="kzhZ7mxOrEvKZff34RCB-166" value="created_at" style="text;strokeColor=none;fillColor=none;align=left;verticalAlign=middle;spacingLeft=4;spacingRight=4;overflow=hidden;points=[[0,0.5],[1,0.5]];portConstraint=eastwest;rotatable=0;whiteSpace=wrap;html=1;" vertex="1" parent="kzhZ7mxOrEvKZff34RCB-161">
          <mxGeometry y="150" width="210" height="30" as="geometry" />
        </mxCell>
        <mxCell id="kzhZ7mxOrEvKZff34RCB-168" value="" style="fontSize=12;html=1;endArrow=ERoneToMany;startArrow=ERoneToMany;rounded=0;entryX=0.5;entryY=1;entryDx=0;entryDy=0;exitX=0.5;exitY=0;exitDx=0;exitDy=0;" edge="1" parent="1" source="kzhZ7mxOrEvKZff34RCB-161" target="kzhZ7mxOrEvKZff34RCB-14">
          <mxGeometry width="100" height="100" relative="1" as="geometry">
            <mxPoint x="583" y="690" as="sourcePoint" />
            <mxPoint x="683" y="590" as="targetPoint" />
          </mxGeometry>
        </mxCell>
        <mxCell id="kzhZ7mxOrEvKZff34RCB-169" value="" style="edgeStyle=entityRelationEdgeStyle;fontSize=12;html=1;endArrow=ERoneToMany;startArrow=ERzeroToOne;rounded=0;exitX=-0.019;exitY=0.033;exitDx=0;exitDy=0;exitPerimeter=0;entryX=1;entryY=0.5;entryDx=0;entryDy=0;" edge="1" parent="1" source="kzhZ7mxOrEvKZff34RCB-165" target="kzhZ7mxOrEvKZff34RCB-72">
          <mxGeometry width="100" height="100" relative="1" as="geometry">
            <mxPoint x="581" y="948" as="sourcePoint" />
            <mxPoint x="681" y="848" as="targetPoint" />
          </mxGeometry>
        </mxCell>
        <mxCell id="kzhZ7mxOrEvKZff34RCB-170" value="" style="edgeStyle=entityRelationEdgeStyle;fontSize=12;html=1;endArrow=ERoneToMany;startArrow=ERzeroToOne;rounded=0;entryX=0;entryY=0.5;entryDx=0;entryDy=0;exitX=1.052;exitY=-0.089;exitDx=0;exitDy=0;exitPerimeter=0;" edge="1" parent="1" source="kzhZ7mxOrEvKZff34RCB-49" target="kzhZ7mxOrEvKZff34RCB-85">
          <mxGeometry width="100" height="100" relative="1" as="geometry">
            <mxPoint x="581" y="1118" as="sourcePoint" />
            <mxPoint x="681" y="1018" as="targetPoint" />
          </mxGeometry>
        </mxCell>
        <mxCell id="kzhZ7mxOrEvKZff34RCB-174" value="" style="edgeStyle=entityRelationEdgeStyle;fontSize=12;html=1;endArrow=ERoneToMany;startArrow=ERzeroToOne;rounded=0;exitX=1;exitY=0;exitDx=0;exitDy=0;entryX=1;entryY=0.5;entryDx=0;entryDy=0;" edge="1" parent="1" source="kzhZ7mxOrEvKZff34RCB-41" target="kzhZ7mxOrEvKZff34RCB-58">
          <mxGeometry width="100" height="100" relative="1" as="geometry">
            <mxPoint x="555" y="490" as="sourcePoint" />
            <mxPoint x="655" y="390" as="targetPoint" />
          </mxGeometry>
        </mxCell>
        <mxCell id="kzhZ7mxOrEvKZff34RCB-179" value="" style="fontSize=12;html=1;endArrow=ERmandOne;startArrow=ERmandOne;rounded=0;entryX=0.47;entryY=1.244;entryDx=0;entryDy=0;entryPerimeter=0;exitX=0.5;exitY=0;exitDx=0;exitDy=0;" edge="1" parent="1" source="kzhZ7mxOrEvKZff34RCB-77" target="kzhZ7mxOrEvKZff34RCB-172">
          <mxGeometry width="100" height="100" relative="1" as="geometry">
            <mxPoint x="784" y="1086" as="sourcePoint" />
            <mxPoint x="884" y="986" as="targetPoint" />
          </mxGeometry>
        </mxCell>
        <mxCell id="kzhZ7mxOrEvKZff34RCB-180" value="" style="edgeStyle=entityRelationEdgeStyle;fontSize=12;html=1;endArrow=ERzeroToOne;startArrow=ERmandOne;rounded=0;entryX=0;entryY=0.5;entryDx=0;entryDy=0;exitX=1;exitY=0.5;exitDx=0;exitDy=0;" edge="1" parent="1" source="kzhZ7mxOrEvKZff34RCB-46" target="kzhZ7mxOrEvKZff34RCB-94">
          <mxGeometry width="100" height="100" relative="1" as="geometry">
            <mxPoint x="1201" y="842" as="sourcePoint" />
            <mxPoint x="1301" y="742" as="targetPoint" />
          </mxGeometry>
        </mxCell>
        <mxCell id="kzhZ7mxOrEvKZff34RCB-184" value="" style="edgeStyle=entityRelationEdgeStyle;fontSize=12;html=1;endArrow=ERzeroToOne;startArrow=ERmandOne;rounded=0;entryX=-0.04;entryY=0.867;entryDx=0;entryDy=0;entryPerimeter=0;" edge="1" parent="1" source="kzhZ7mxOrEvKZff34RCB-62" target="kzhZ7mxOrEvKZff34RCB-58">
          <mxGeometry width="100" height="100" relative="1" as="geometry">
            <mxPoint x="957" y="617" as="sourcePoint" />
            <mxPoint x="1057" y="517" as="targetPoint" />
            <Array as="points">
              <mxPoint x="852" y="627" />
            </Array>
          </mxGeometry>
        </mxCell>
        <mxCell id="kzhZ7mxOrEvKZff34RCB-185" value="" style="edgeStyle=entityRelationEdgeStyle;fontSize=12;html=1;endArrow=ERzeroToOne;startArrow=ERmandOne;rounded=0;entryX=0.527;entryY=1.122;entryDx=0;entryDy=0;entryPerimeter=0;exitX=-0.029;exitY=0.244;exitDx=0;exitDy=0;exitPerimeter=0;" edge="1" parent="1" source="kzhZ7mxOrEvKZff34RCB-67" target="kzhZ7mxOrEvKZff34RCB-171">
          <mxGeometry width="100" height="100" relative="1" as="geometry">
            <mxPoint x="640" y="667" as="sourcePoint" />
            <mxPoint x="740" y="567" as="targetPoint" />
          </mxGeometry>
        </mxCell>
        <mxCell id="kzhZ7mxOrEvKZff34RCB-186" value="" style="edgeStyle=entityRelationEdgeStyle;fontSize=12;html=1;endArrow=ERzeroToOne;startArrow=ERmandOne;rounded=0;entryX=0.824;entryY=0.967;entryDx=0;entryDy=0;entryPerimeter=0;exitX=1;exitY=0;exitDx=0;exitDy=0;" edge="1" parent="1" source="kzhZ7mxOrEvKZff34RCB-61" target="kzhZ7mxOrEvKZff34RCB-18">
          <mxGeometry width="100" height="100" relative="1" as="geometry">
            <mxPoint x="640" y="941" as="sourcePoint" />
            <mxPoint x="740" y="841" as="targetPoint" />
          </mxGeometry>
        </mxCell>
        <mxCell id="kzhZ7mxOrEvKZff34RCB-195" value="" style="edgeStyle=orthogonalEdgeStyle;fontSize=12;html=1;endArrow=ERoneToMany;startArrow=ERmandOne;rounded=0;exitX=1;exitY=0.5;exitDx=0;exitDy=0;" edge="1" parent="1" source="kzhZ7mxOrEvKZff34RCB-171" target="kzhZ7mxOrEvKZff34RCB-131">
          <mxGeometry width="100" height="100" relative="1" as="geometry">
            <mxPoint x="460" y="686" as="sourcePoint" />
            <mxPoint x="560" y="586" as="targetPoint" />
          </mxGeometry>
        </mxCell>
        <mxCell id="kzhZ7mxOrEvKZff34RCB-196" value="" style="edgeStyle=entityRelationEdgeStyle;fontSize=12;html=1;endArrow=ERzeroToOne;startArrow=ERmandOne;rounded=0;exitX=1;exitY=0.5;exitDx=0;exitDy=0;entryX=0;entryY=0.5;entryDx=0;entryDy=0;" edge="1" parent="1" source="kzhZ7mxOrEvKZff34RCB-135" target="kzhZ7mxOrEvKZff34RCB-192">
          <mxGeometry width="100" height="100" relative="1" as="geometry">
            <mxPoint x="663" y="1897" as="sourcePoint" />
            <mxPoint x="763" y="1797" as="targetPoint" />
            <Array as="points">
              <mxPoint x="1075" y="1927" />
            </Array>
          </mxGeometry>
        </mxCell>
        <mxCell id="kzhZ7mxOrEvKZff34RCB-197" value="" style="edgeStyle=entityRelationEdgeStyle;fontSize=12;html=1;endArrow=ERzeroToOne;startArrow=ERmandOne;rounded=0;entryX=0.5;entryY=0;entryDx=0;entryDy=0;exitX=1.043;exitY=0.222;exitDx=0;exitDy=0;exitPerimeter=0;" edge="1" parent="1" source="kzhZ7mxOrEvKZff34RCB-182" target="kzhZ7mxOrEvKZff34RCB-145">
          <mxGeometry width="100" height="100" relative="1" as="geometry">
            <mxPoint x="1041" y="1791" as="sourcePoint" />
            <mxPoint x="1141" y="1691" as="targetPoint" />
          </mxGeometry>
        </mxCell>
        <mxCell id="kzhZ7mxOrEvKZff34RCB-199" value="" style="edgeStyle=entityRelationEdgeStyle;fontSize=12;html=1;endArrow=ERzeroToOne;startArrow=ERmandOne;rounded=0;entryX=-0.038;entryY=0.067;entryDx=0;entryDy=0;entryPerimeter=0;exitX=1;exitY=0.5;exitDx=0;exitDy=0;" edge="1" parent="1" source="kzhZ7mxOrEvKZff34RCB-113" target="kzhZ7mxOrEvKZff34RCB-29">
          <mxGeometry width="100" height="100" relative="1" as="geometry">
            <mxPoint x="48.670000000000016" y="941.67" as="sourcePoint" />
            <mxPoint x="-135.00000000000006" y="627.9999999999999" as="targetPoint" />
          </mxGeometry>
        </mxCell>
        <mxCell id="kzhZ7mxOrEvKZff34RCB-200" value="" style="fontSize=12;html=1;endArrow=ERoneToMany;startArrow=ERzeroToOne;rounded=0;exitX=0.456;exitY=1.056;exitDx=0;exitDy=0;exitPerimeter=0;entryX=0.5;entryY=0;entryDx=0;entryDy=0;" edge="1" parent="1" source="kzhZ7mxOrEvKZff34RCB-114" target="kzhZ7mxOrEvKZff34RCB-105">
          <mxGeometry width="100" height="100" relative="1" as="geometry">
            <mxPoint x="358" y="1491" as="sourcePoint" />
            <mxPoint x="458" y="1391" as="targetPoint" />
          </mxGeometry>
        </mxCell>
        <mxCell id="kzhZ7mxOrEvKZff34RCB-201" value="" style="edgeStyle=entityRelationEdgeStyle;fontSize=12;html=1;endArrow=ERoneToMany;startArrow=ERmandOne;rounded=0;exitX=1.002;exitY=0.244;exitDx=0;exitDy=0;exitPerimeter=0;entryX=0;entryY=0.5;entryDx=0;entryDy=0;" edge="1" parent="1" source="kzhZ7mxOrEvKZff34RCB-26" target="kzhZ7mxOrEvKZff34RCB-125">
          <mxGeometry width="100" height="100" relative="1" as="geometry">
            <mxPoint x="705" y="253" as="sourcePoint" />
            <mxPoint x="805" y="153" as="targetPoint" />
          </mxGeometry>
        </mxCell>
        <mxCell id="kzhZ7mxOrEvKZff34RCB-202" value="" style="fontSize=12;html=1;endArrow=ERzeroToMany;startArrow=ERmandOne;rounded=0;exitX=0.5;exitY=0;exitDx=0;exitDy=0;entryX=1.011;entryY=-0.178;entryDx=0;entryDy=0;entryPerimeter=0;" edge="1" parent="1" source="kzhZ7mxOrEvKZff34RCB-52" target="kzhZ7mxOrEvKZff34RCB-123">
          <mxGeometry width="100" height="100" relative="1" as="geometry">
            <mxPoint x="705" y="253" as="sourcePoint" />
            <mxPoint x="805" y="153" as="targetPoint" />
          </mxGeometry>
        </mxCell>
        <mxCell id="kzhZ7mxOrEvKZff34RCB-203" value="" style="edgeStyle=entityRelationEdgeStyle;fontSize=12;html=1;endArrow=ERoneToMany;startArrow=ERmandOne;rounded=0;exitX=0;exitY=0.5;exitDx=0;exitDy=0;entryX=1;entryY=0.5;entryDx=0;entryDy=0;" edge="1" parent="1" source="kzhZ7mxOrEvKZff34RCB-27" target="kzhZ7mxOrEvKZff34RCB-38">
          <mxGeometry width="100" height="100" relative="1" as="geometry">
            <mxPoint x="653" y="672" as="sourcePoint" />
            <mxPoint x="753" y="572" as="targetPoint" />
          </mxGeometry>
        </mxCell>
        <mxCell id="kzhZ7mxOrEvKZff34RCB-206" value="DoctorSchedule" style="swimlane;fontStyle=0;childLayout=stackLayout;horizontal=1;startSize=30;horizontalStack=0;resizeParent=1;resizeParentMax=0;resizeLast=0;collapsible=1;marginBottom=0;whiteSpace=wrap;html=1;" vertex="1" parent="1">
          <mxGeometry x="-207" y="477" width="210" height="270" as="geometry" />
        </mxCell>
        <mxCell id="kzhZ7mxOrEvKZff34RCB-207" value="schedule_id" style="text;strokeColor=none;fillColor=none;align=left;verticalAlign=middle;spacingLeft=4;spacingRight=4;overflow=hidden;points=[[0,0.5],[1,0.5]];portConstraint=eastwest;rotatable=0;whiteSpace=wrap;html=1;" vertex="1" parent="kzhZ7mxOrEvKZff34RCB-206">
          <mxGeometry y="30" width="210" height="30" as="geometry" />
        </mxCell>
        <mxCell id="kzhZ7mxOrEvKZff34RCB-208" value="doctor_id" style="text;strokeColor=none;fillColor=none;align=left;verticalAlign=middle;spacingLeft=4;spacingRight=4;overflow=hidden;points=[[0,0.5],[1,0.5]];portConstraint=eastwest;rotatable=0;whiteSpace=wrap;html=1;" vertex="1" parent="kzhZ7mxOrEvKZff34RCB-206">
          <mxGeometry y="60" width="210" height="30" as="geometry" />
        </mxCell>
        <mxCell id="kzhZ7mxOrEvKZff34RCB-209" value="weekday" style="text;strokeColor=none;fillColor=none;align=left;verticalAlign=middle;spacingLeft=4;spacingRight=4;overflow=hidden;points=[[0,0.5],[1,0.5]];portConstraint=eastwest;rotatable=0;whiteSpace=wrap;html=1;" vertex="1" parent="kzhZ7mxOrEvKZff34RCB-206">
          <mxGeometry y="90" width="210" height="30" as="geometry" />
        </mxCell>
        <mxCell id="kzhZ7mxOrEvKZff34RCB-210" value="start_time" style="text;strokeColor=none;fillColor=none;align=left;verticalAlign=middle;spacingLeft=4;spacingRight=4;overflow=hidden;points=[[0,0.5],[1,0.5]];portConstraint=eastwest;rotatable=0;whiteSpace=wrap;html=1;" vertex="1" parent="kzhZ7mxOrEvKZff34RCB-206">
          <mxGeometry y="120" width="210" height="30" as="geometry" />
        </mxCell>
        <mxCell id="kzhZ7mxOrEvKZff34RCB-211" value="end_time" style="text;strokeColor=none;fillColor=none;align=left;verticalAlign=middle;spacingLeft=4;spacingRight=4;overflow=hidden;points=[[0,0.5],[1,0.5]];portConstraint=eastwest;rotatable=0;whiteSpace=wrap;html=1;" vertex="1" parent="kzhZ7mxOrEvKZff34RCB-206">
          <mxGeometry y="150" width="210" height="30" as="geometry" />
        </mxCell>
        <mxCell id="kzhZ7mxOrEvKZff34RCB-212" value="is_available" style="text;strokeColor=none;fillColor=none;align=left;verticalAlign=middle;spacingLeft=4;spacingRight=4;overflow=hidden;points=[[0,0.5],[1,0.5]];portConstraint=eastwest;rotatable=0;whiteSpace=wrap;html=1;" vertex="1" parent="kzhZ7mxOrEvKZff34RCB-206">
          <mxGeometry y="180" width="210" height="30" as="geometry" />
        </mxCell>
        <mxCell id="kzhZ7mxOrEvKZff34RCB-213" value="location" style="text;strokeColor=none;fillColor=none;align=left;verticalAlign=middle;spacingLeft=4;spacingRight=4;overflow=hidden;points=[[0,0.5],[1,0.5]];portConstraint=eastwest;rotatable=0;whiteSpace=wrap;html=1;" vertex="1" parent="kzhZ7mxOrEvKZff34RCB-206">
          <mxGeometry y="210" width="210" height="30" as="geometry" />
        </mxCell>
        <mxCell id="kzhZ7mxOrEvKZff34RCB-215" value="created_at" style="text;strokeColor=none;fillColor=none;align=left;verticalAlign=middle;spacingLeft=4;spacingRight=4;overflow=hidden;points=[[0,0.5],[1,0.5]];portConstraint=eastwest;rotatable=0;whiteSpace=wrap;html=1;" vertex="1" parent="kzhZ7mxOrEvKZff34RCB-206">
          <mxGeometry y="240" width="210" height="30" as="geometry" />
        </mxCell>
        <mxCell id="kzhZ7mxOrEvKZff34RCB-217" value="" style="edgeStyle=entityRelationEdgeStyle;fontSize=12;html=1;endArrow=ERzeroToOne;startArrow=ERmandOne;rounded=0;exitX=0;exitY=0.5;exitDx=0;exitDy=0;" edge="1" parent="1" source="kzhZ7mxOrEvKZff34RCB-30" target="kzhZ7mxOrEvKZff34RCB-211">
          <mxGeometry width="100" height="100" relative="1" as="geometry">
            <mxPoint x="334" y="437" as="sourcePoint" />
            <mxPoint x="434" y="337" as="targetPoint" />
          </mxGeometry>
        </mxCell>
        <mxCell id="kzhZ7mxOrEvKZff34RCB-219" value="" style="edgeStyle=entityRelationEdgeStyle;fontSize=12;html=1;endArrow=ERoneToMany;startArrow=ERmandOne;rounded=0;exitX=1.054;exitY=0.374;exitDx=0;exitDy=0;exitPerimeter=0;entryX=0;entryY=0.5;entryDx=0;entryDy=0;" edge="1" parent="1" source="kzhZ7mxOrEvKZff34RCB-213" target="kzhZ7mxOrEvKZff34RCB-172">
          <mxGeometry width="100" height="100" relative="1" as="geometry">
            <mxPoint x="462" y="597" as="sourcePoint" />
            <mxPoint x="562" y="497" as="targetPoint" />
            <Array as="points">
              <mxPoint x="11" y="703" />
              <mxPoint x="954" y="806" />
            </Array>
          </mxGeometry>
        </mxCell>
      </root>
    </mxGraphModel>
  </diagram>
</mxfile>
